<svg width="46" height="48" viewBox="0 0 46 48" fill="none" xmlns="http://www.w3.org/2000/svg">
<path d="M5.76769 35.5585C7.1359 36.5021 9.05846 36.9738 11.5354 36.9738C13.2103 36.9738 14.4605 36.4903 15.2862 35.5231C16.1354 34.5559 16.56 33.4 16.56 32.0554C16.56 31.3477 16.501 30.7579 16.3831 30.2862C16.2651 29.7908 16.0056 29.2364 15.6046 28.6231C15.2272 28.0097 14.6138 27.3964 13.7646 26.7831C12.9154 26.1697 11.8067 25.521 10.4385 24.8369C8.83436 24.0349 7.53692 23.28 6.54615 22.5723C5.55538 21.8646 4.81231 21.1333 4.31692 20.3785C3.82154 19.6236 3.49128 18.9041 3.32615 18.22C3.16103 17.5359 3.07846 16.6867 3.07846 15.6723C3.07846 13.5964 3.9041 11.9923 5.55538 10.86C7.23026 9.70411 9.2 9.12616 11.4646 9.12616C14.2718 9.12616 16.9846 9.83385 19.6031 11.2492V18.0431C18.801 18.1846 18.1287 18.1846 17.5862 18.0431L16.4538 11.9215C14.9441 11.0959 13.2574 10.6831 11.3938 10.6831C10.1436 10.6831 9.08205 11.0605 8.20923 11.8154C7.36 12.5467 6.93538 13.5846 6.93538 14.9292C6.93538 15.6841 6.98256 16.2738 7.07692 16.6985C7.17128 17.1231 7.40718 17.6303 7.78461 18.22C8.16205 18.7862 8.78718 19.3641 9.66 19.9538C10.5328 20.52 11.7005 21.1569 13.1631 21.8646C18.2113 24.318 20.7354 27.2431 20.7354 30.64C20.7354 33.0462 19.8154 34.9923 17.9754 36.4785C16.1354 37.9646 13.7292 38.7077 10.7569 38.7077C7.8082 38.7077 5.09538 38.0118 2.61846 36.62V29.8262C3.42051 29.6846 4.09282 29.6846 4.63538 29.8262L5.76769 35.5585Z" fill="#DEDEDE"/>
<path d="M33.0492 25.8754L24.8754 15.0477C23.861 13.6088 22.8703 12.4057 21.9031 11.4385L19.1431 11.1554C19.0487 10.7544 19.0369 10.318 19.1077 9.84619C22.6462 9.91696 24.84 9.95234 25.6892 9.95234C27.4349 9.95234 28.8385 9.90516 29.9 9.81081C30.0415 10.2118 30.0533 10.6364 29.9354 11.0847L27.0339 11.58C27.2462 12.0282 28.0836 13.2785 29.5462 15.3308L35.4908 23.5046L37.5077 23.5047L37.5077 11.4031L34.6415 11.0493C34.5472 10.6954 34.5472 10.259 34.6415 9.74004C36.1277 9.81081 37.7436 9.84619 39.4892 9.84619C40.7631 9.84619 42.3908 9.8226 44.3723 9.77542C44.5138 10.2 44.5138 10.6247 44.3723 11.0493L41.4354 11.4739C41.341 12.3703 41.2938 13.7503 41.2938 15.6139L41.2938 36.4554L44.16 36.8093C44.2544 37.1631 44.2544 37.5995 44.16 38.1185C42.8626 38.0241 41.2467 37.977 39.3123 37.977C37.5903 37.977 35.9626 38.0123 34.4292 38.0831C34.2877 37.6585 34.2877 37.2339 34.4292 36.8093L37.3662 36.3846C37.4605 35.4882 37.5077 34.1082 37.5077 32.2446L37.5077 25.3093L35.6323 25.3093L26.68 36.4554L29.5462 36.8093C29.6405 37.1631 29.6405 37.5995 29.5462 38.1185C28.2487 38.0241 26.8923 37.977 25.4769 37.977C24.2503 37.977 22.8821 38.0123 21.3723 38.0831C21.2308 37.6585 21.2308 37.2339 21.3723 36.8093L23.7431 36.3846C24.8282 35.5354 25.9015 34.4857 26.9631 33.2354L33.0492 25.8754Z" fill="#DEDEDE"/>
</svg>
